<svg version="1.1" id="Layer_1" xmlns="http://www.w3.org/2000/svg" xmlns:xlink="http://www.w3.org/1999/xlink" x="0px" y="0px"
	 width="100%" viewBox="0 0 500 500" enable-background="new 0 0 500 500" xml:space="preserve">
<path fill="#000000" opacity="1.000000" stroke="none" 
	d="
M458.000000,501.000000 
	C305.333374,501.000000 153.166733,501.000000 1.000082,501.000000 
	C1.000054,334.333405 1.000054,167.666824 1.000027,1.000171 
	C167.666550,1.000114 334.333099,1.000114 500.999756,1.000057 
	C500.999817,167.666519 500.999817,334.333038 500.999908,500.999756 
	C486.833344,501.000000 472.666656,501.000000 458.000000,501.000000 
M189.861191,275.017090 
	C203.308929,274.946564 216.756668,274.876068 231.115631,274.845581 
	C236.261307,274.895020 241.409958,275.071014 246.551620,274.950073 
	C250.067917,274.867432 253.574478,274.370911 257.015076,274.014038 
	C257.015076,274.014038 257.060425,274.084320 257.853638,274.007660 
	C268.772095,272.892487 276.859863,261.730774 277.124023,252.190140 
	C277.476227,239.471420 266.565399,226.515289 251.581955,226.974625 
	C244.819489,227.181946 238.045380,227.009766 231.503693,227.009766 
	C230.969315,218.055328 230.609390,209.656662 229.931931,201.283707 
	C229.121414,191.266251 219.661087,181.733566 210.276321,181.002884 
	C195.572296,179.858078 185.873978,187.577240 184.280106,198.101196 
	C182.806625,207.830261 183.471222,217.883133 183.024780,228.743118 
	C183.102798,243.906708 183.180801,259.070282 183.233643,275.143890 
	C183.233643,290.358429 183.233643,305.572937 183.233643,321.036346 
	C185.375198,320.935883 187.093063,320.855286 188.913345,320.769897 
	C188.913345,305.172638 188.913345,290.080139 189.861191,275.017090 
z"/>
<path fill="#41BBE8" opacity="1.000000" stroke="none" 
	d="
M257.085388,274.059387 
	C253.574478,274.370911 250.067917,274.867432 246.551620,274.950073 
	C241.409958,275.071014 236.261307,274.895020 230.613647,274.371826 
	C230.111649,258.678253 230.111649,243.458466 230.111649,227.793396 
	C213.799469,227.793396 198.496826,227.793396 183.194199,227.793396 
	C183.471222,217.883133 182.806625,207.830261 184.280106,198.101196 
	C185.873978,187.577240 195.572296,179.858078 210.276321,181.002884 
	C219.661087,181.733566 229.121414,191.266251 229.931931,201.283707 
	C230.609390,209.656662 230.969315,218.055328 231.503693,227.009766 
	C238.045380,227.009766 244.819489,227.181946 251.581955,226.974625 
	C266.565399,226.515289 277.476227,239.471420 277.124023,252.190140 
	C276.859863,261.730774 268.772095,272.892487 257.468933,273.656006 
	C258.242523,268.885925 259.400757,264.467468 260.816895,259.065155 
	C262.673248,261.030273 264.618378,263.089417 266.806824,265.406097 
	C272.826385,262.752594 275.262665,256.654297 275.622284,250.901001 
	C276.099548,243.265335 270.212402,238.506821 263.792084,234.121262 
	C263.924561,235.993713 264.015930,237.285004 264.107269,238.576309 
	C263.612518,238.824188 263.117798,239.072067 262.623047,239.319946 
	C261.751221,237.933853 261.067383,236.370270 259.964539,235.202347 
	C258.211426,233.345840 256.414825,230.830627 254.208801,230.266144 
	C250.928589,229.426804 247.251511,229.789978 243.787094,230.112106 
	C239.942917,230.469513 237.622192,232.372314 238.652145,236.812347 
	C238.988693,238.263199 238.705063,239.857895 238.705063,242.005203 
	C232.900696,240.064941 231.747772,242.416306 231.933228,246.910706 
	C232.207458,253.556915 231.933792,260.223755 232.032516,266.879761 
	C232.118500,272.677277 233.430862,273.931580 239.111206,273.983765 
	C245.102325,274.038788 251.093979,274.036591 257.085388,274.059387 
M234.189651,234.221786 
	C233.913788,233.947449 233.637909,233.673111 233.362045,233.398804 
	C233.176041,233.610031 232.990036,233.821274 232.804016,234.032501 
	C233.168091,234.198730 233.532181,234.364975 234.189651,234.221786 
z"/>
<path fill="#1B2D5D" opacity="1.000000" stroke="none" 
	d="
M183.109497,228.268250 
	C198.496826,227.793396 213.799469,227.793396 230.111649,227.793396 
	C230.111649,243.458466 230.111649,258.678253 230.158020,274.351807 
	C216.756668,274.876068 203.308929,274.946564 189.057175,274.865601 
	C186.588379,274.554016 184.923584,274.393951 183.258804,274.233887 
	C183.180801,259.070282 183.102798,243.906708 183.109497,228.268250 
M207.392426,237.159683 
	C199.589157,235.840912 203.180588,242.620468 201.472427,245.848022 
	C198.715134,246.066788 195.996201,246.282501 193.314911,246.495239 
	C193.314911,249.755432 193.314911,252.507584 193.314911,255.551773 
	C196.303879,255.763550 199.020279,255.956009 201.827560,256.154907 
	C202.040085,259.248810 202.217987,261.838348 202.406418,264.581482 
	C205.551849,264.581482 208.389420,264.581482 211.381546,264.581482 
	C211.499222,262.872681 211.779114,261.547729 211.642487,260.267181 
	C211.264160,256.720978 212.864182,255.368912 216.232681,255.843369 
	C220.088104,256.386414 220.954147,254.566681 220.944290,250.985489 
	C220.934448,247.407120 220.053162,245.582321 216.209213,246.141846 
	C212.796722,246.638550 211.299118,245.238510 211.650040,241.711609 
	C211.889267,239.307449 211.855759,236.828522 207.392426,237.159683 
z"/>
<path fill="#41BBE8" opacity="1.000000" stroke="none" 
	d="
M183.246216,274.688904 
	C184.923584,274.393951 186.588379,274.554016 188.583252,274.850891 
	C188.913345,290.080139 188.913345,305.172638 188.913345,320.769897 
	C187.093063,320.855286 185.375198,320.935883 183.233643,321.036346 
	C183.233643,305.572937 183.233643,290.358429 183.246216,274.688904 
z"/>
<path fill="#3DBDEC" opacity="1.000000" stroke="none" 
	d="
M257.050232,274.036713 
	C251.093979,274.036591 245.102325,274.038788 239.111206,273.983765 
	C233.430862,273.931580 232.118500,272.677277 232.032516,266.879761 
	C231.933792,260.223755 232.207458,253.556915 231.933228,246.910706 
	C231.747772,242.416306 232.900696,240.064941 238.705063,242.005203 
	C238.705063,239.857895 238.988693,238.263199 238.652145,236.812347 
	C237.622192,232.372314 239.942917,230.469513 243.787094,230.112106 
	C247.251511,229.789978 250.928589,229.426804 254.208801,230.266144 
	C256.414825,230.830627 258.211426,233.345840 259.964539,235.202347 
	C261.067383,236.370270 261.751221,237.933853 262.623047,239.319946 
	C263.117798,239.072067 263.612518,238.824188 264.107269,238.576309 
	C264.015930,237.285004 263.924561,235.993713 263.792084,234.121262 
	C270.212402,238.506821 276.099548,243.265335 275.622284,250.901001 
	C275.262665,256.654297 272.826385,262.752594 266.806824,265.406097 
	C264.618378,263.089417 262.673248,261.030273 260.816895,259.065155 
	C259.400757,264.467468 258.242523,268.885925 257.072327,273.694336 
	C257.060425,274.084320 257.015076,274.014038 257.050232,274.036713 
z"/>
<path fill="#3DBDEC" opacity="1.000000" stroke="none" 
	d="
M234.042953,234.376495 
	C233.532181,234.364975 233.168091,234.198730 232.804016,234.032501 
	C232.990036,233.821274 233.176041,233.610031 233.362030,233.398804 
	C233.637909,233.673111 233.913788,233.947449 234.042953,234.376495 
z"/>
<path fill="#41BBE8" opacity="1.000000" stroke="none" 
	d="
M207.823959,237.159943 
	C211.855759,236.828522 211.889267,239.307449 211.650040,241.711609 
	C211.299118,245.238510 212.796722,246.638550 216.209213,246.141846 
	C220.053162,245.582321 220.934448,247.407120 220.944290,250.985489 
	C220.954147,254.566681 220.088104,256.386414 216.232681,255.843369 
	C212.864182,255.368912 211.264160,256.720978 211.642487,260.267181 
	C211.779114,261.547729 211.499222,262.872681 211.381546,264.581482 
	C208.389420,264.581482 205.551849,264.581482 202.406418,264.581482 
	C202.217987,261.838348 202.040085,259.248810 201.827560,256.154907 
	C199.020279,255.956009 196.303879,255.763550 193.314911,255.551773 
	C193.314911,252.507584 193.314911,249.755432 193.314911,246.495239 
	C195.996201,246.282501 198.715134,246.066788 201.472427,245.848022 
	C203.180588,242.620468 199.589157,235.840912 207.823959,237.159943 
z"/>
</svg>